{
	"patcher" : 	{
		"fileversion" : 1,
		"rect" : [ 19.0, 341.0, 1854.0, 527.0 ],
		"bglocked" : 0,
		"defrect" : [ 19.0, 341.0, 1854.0, 527.0 ],
		"openrect" : [ 0.0, 0.0, 0.0, 0.0 ],
		"openinpresentation" : 0,
		"default_fontsize" : 12.0,
		"default_fontface" : 0,
		"default_fontname" : "Arial",
		"gridonopen" : 0,
		"gridsize" : [ 15.0, 15.0 ],
		"gridsnaponopen" : 0,
		"toolbarvisible" : 1,
		"boxanimatetime" : 200,
		"imprint" : 0,
		"enablehscroll" : 1,
		"enablevscroll" : 1,
		"devicewidth" : 0.0,
		"boxes" : [ 			{
				"box" : 				{
					"maxclass" : "newobj",
					"text" : "Mu.lemurClient #1/Mode/x #2",
					"patching_rect" : [ 908.5, 175.5, 167.0, 20.0 ],
					"numinlets" : 3,
					"fontname" : "Arial",
					"numoutlets" : 1,
					"outlettype" : [ "" ],
					"fontsize" : 12.0,
					"id" : "obj-13"
				}

			}
, 			{
				"box" : 				{
					"maxclass" : "toggle",
					"patching_rect" : [ 908.5, 197.5, 20.0, 20.0 ],
					"numinlets" : 1,
					"numoutlets" : 1,
					"outlettype" : [ "int" ],
					"id" : "obj-14"
				}

			}
, 			{
				"box" : 				{
					"maxclass" : "newobj",
					"text" : "Mu.deviceParameter #1 \"Mode\" #2",
					"patching_rect" : [ 907.5, 218.5, 196.0, 20.0 ],
					"numinlets" : 3,
					"fontname" : "Arial",
					"numoutlets" : 3,
					"outlettype" : [ "", "", "" ],
					"fontsize" : 12.0,
					"id" : "obj-15"
				}

			}
, 			{
				"box" : 				{
					"maxclass" : "newobj",
					"text" : "Mu.id2list 3",
					"patching_rect" : [ 654.0, 289.0, 84.0, 20.0 ],
					"numinlets" : 1,
					"fontname" : "Arial",
					"numoutlets" : 1,
					"outlettype" : [ "" ],
					"fontsize" : 12.0,
					"id" : "obj-10"
				}

			}
, 			{
				"box" : 				{
					"maxclass" : "newobj",
					"text" : "expr ($i1 - 1) / 2.",
					"patching_rect" : [ 654.0, 222.0, 99.0, 20.0 ],
					"numinlets" : 1,
					"fontname" : "Arial",
					"numoutlets" : 1,
					"outlettype" : [ "" ],
					"fontsize" : 12.0,
					"id" : "obj-23"
				}

			}
, 			{
				"box" : 				{
					"maxclass" : "newobj",
					"text" : "zl sub 1.",
					"patching_rect" : [ 654.0, 200.0, 55.0, 20.0 ],
					"numinlets" : 2,
					"fontname" : "Arial",
					"numoutlets" : 2,
					"outlettype" : [ "", "" ],
					"fontsize" : 12.0,
					"id" : "obj-9"
				}

			}
, 			{
				"box" : 				{
					"maxclass" : "newobj",
					"text" : "* 2.",
					"patching_rect" : [ 654.0, 266.0, 32.5, 20.0 ],
					"numinlets" : 2,
					"fontname" : "Arial",
					"numoutlets" : 1,
					"outlettype" : [ "float" ],
					"fontsize" : 12.0,
					"id" : "obj-18"
				}

			}
, 			{
				"box" : 				{
					"maxclass" : "newobj",
					"text" : "Mu.lemurClient #1/Sign/x #2",
					"patching_rect" : [ 654.0, 178.0, 161.0, 20.0 ],
					"numinlets" : 3,
					"fontname" : "Arial",
					"numoutlets" : 1,
					"outlettype" : [ "" ],
					"fontsize" : 12.0,
					"id" : "obj-11"
				}

			}
, 			{
				"box" : 				{
					"maxclass" : "newobj",
					"text" : "Mu.deviceParameter #1 Sign #2",
					"patching_rect" : [ 653.0, 244.0, 182.0, 20.0 ],
					"numinlets" : 3,
					"fontname" : "Arial",
					"numoutlets" : 3,
					"outlettype" : [ "", "", "" ],
					"fontsize" : 12.0,
					"id" : "obj-22"
				}

			}
, 			{
				"box" : 				{
					"maxclass" : "newobj",
					"text" : "Mu.deviceParameter #1 \"Choices\" #2",
					"patching_rect" : [ 367.0, 318.0, 210.0, 20.0 ],
					"numinlets" : 3,
					"fontname" : "Arial",
					"numoutlets" : 3,
					"outlettype" : [ "", "", "" ],
					"fontsize" : 12.0,
					"id" : "obj-6"
				}

			}
, 			{
				"box" : 				{
					"maxclass" : "newobj",
					"text" : "Mu.lemurClient #1/Choices/x #2",
					"patching_rect" : [ 367.0, 294.0, 181.0, 20.0 ],
					"numinlets" : 3,
					"fontname" : "Arial",
					"numoutlets" : 1,
					"outlettype" : [ "" ],
					"fontsize" : 12.0,
					"id" : "obj-4"
				}

			}
, 			{
				"box" : 				{
					"maxclass" : "newobj",
					"text" : "Mu.deviceParameter #1 \"Scale\" #2",
					"patching_rect" : [ 368.0, 257.0, 196.0, 20.0 ],
					"numinlets" : 3,
					"fontname" : "Arial",
					"numoutlets" : 3,
					"outlettype" : [ "", "", "" ],
					"fontsize" : 12.0,
					"id" : "obj-7"
				}

			}
, 			{
				"box" : 				{
					"maxclass" : "newobj",
					"text" : "Mu.lemurClient #1/Scale/x #2",
					"patching_rect" : [ 368.0, 235.0, 167.0, 20.0 ],
					"numinlets" : 3,
					"fontname" : "Arial",
					"numoutlets" : 1,
					"outlettype" : [ "" ],
					"fontsize" : 12.0,
					"id" : "obj-1"
				}

			}
, 			{
				"box" : 				{
					"maxclass" : "newobj",
					"text" : "Mu.lemurClient #1/Chance/x #2",
					"patching_rect" : [ 369.0, 178.0, 179.0, 20.0 ],
					"numinlets" : 3,
					"fontname" : "Arial",
					"numoutlets" : 1,
					"outlettype" : [ "" ],
					"fontsize" : 12.0,
					"id" : "obj-8"
				}

			}
, 			{
				"box" : 				{
					"maxclass" : "newobj",
					"text" : "Mu.deviceParameter #1 \"Chance\" #2",
					"patching_rect" : [ 368.5, 200.5, 208.0, 20.0 ],
					"numinlets" : 3,
					"fontname" : "Arial",
					"numoutlets" : 3,
					"outlettype" : [ "", "", "" ],
					"fontsize" : 12.0,
					"id" : "obj-5"
				}

			}
, 			{
				"box" : 				{
					"maxclass" : "comment",
					"text" : "Messages",
					"patching_rect" : [ 158.0, 7.0, 119.0, 20.0 ],
					"numinlets" : 1,
					"fontname" : "Arial",
					"numoutlets" : 0,
					"fontsize" : 12.0,
					"id" : "obj-12"
				}

			}
, 			{
				"box" : 				{
					"maxclass" : "comment",
					"text" : "This is the basic layout that you can use to build your own, custom interface for a Ableton Audio Effect, MIDI Effect or Instrument. The framework is built around two abstractions.",
					"linecount" : 4,
					"patching_rect" : [ 373.0, 19.0, 259.0, 62.0 ],
					"numinlets" : 1,
					"fontname" : "Arial",
					"numoutlets" : 0,
					"fontsize" : 12.0,
					"id" : "obj-3"
				}

			}
, 			{
				"box" : 				{
					"maxclass" : "newobj",
					"text" : "p fullScreenLayout",
					"patching_rect" : [ 39.0, 67.0, 110.0, 20.0 ],
					"numinlets" : 1,
					"fontname" : "Arial",
					"numoutlets" : 1,
					"outlettype" : [ "" ],
					"fontsize" : 12.0,
					"id" : "obj-59",
					"patcher" : 					{
						"fileversion" : 1,
						"rect" : [ 513.0, 339.0, 640.0, 480.0 ],
						"bglocked" : 0,
						"defrect" : [ 513.0, 339.0, 640.0, 480.0 ],
						"openrect" : [ 0.0, 0.0, 0.0, 0.0 ],
						"openinpresentation" : 0,
						"default_fontsize" : 12.0,
						"default_fontface" : 0,
						"default_fontname" : "Arial",
						"gridonopen" : 0,
						"gridsize" : [ 15.0, 15.0 ],
						"gridsnaponopen" : 0,
						"toolbarvisible" : 1,
						"boxanimatetime" : 200,
						"imprint" : 0,
						"enablehscroll" : 1,
						"enablevscroll" : 1,
						"devicewidth" : 0.0,
						"boxes" : [ 							{
								"box" : 								{
									"maxclass" : "comment",
									"text" : "Small example of custom layout messages you can send when your device is full sized. Half/Full state is automatically handled with the templates layout buttons.",
									"linecount" : 4,
									"patching_rect" : [ 123.0, 101.0, 265.0, 62.0 ],
									"numinlets" : 1,
									"fontname" : "Arial",
									"numoutlets" : 0,
									"fontsize" : 12.0,
									"id" : "obj-3"
								}

							}
, 							{
								"box" : 								{
									"maxclass" : "message",
									"text" : "#1/Multiball @rect 0 0 300 100, #1/CustomButton/x 0.",
									"patching_rect" : [ 69.0, 227.0, 296.0, 18.0 ],
									"numinlets" : 2,
									"fontname" : "Arial",
									"numoutlets" : 1,
									"outlettype" : [ "" ],
									"fontsize" : 12.0,
									"id" : "obj-2"
								}

							}
, 							{
								"box" : 								{
									"maxclass" : "outlet",
									"patching_rect" : [ 69.0, 410.0, 25.0, 25.0 ],
									"numinlets" : 1,
									"numoutlets" : 0,
									"id" : "obj-6",
									"comment" : ""
								}

							}
, 							{
								"box" : 								{
									"maxclass" : "inlet",
									"patching_rect" : [ 69.0, 33.0, 25.0, 25.0 ],
									"numinlets" : 0,
									"numoutlets" : 1,
									"outlettype" : [ "bang" ],
									"id" : "obj-4",
									"comment" : ""
								}

							}
 ],
						"lines" : [ 							{
								"patchline" : 								{
									"source" : [ "obj-2", 0 ],
									"destination" : [ "obj-6", 0 ],
									"hidden" : 0,
									"midpoints" : [  ]
								}

							}
, 							{
								"patchline" : 								{
									"source" : [ "obj-4", 0 ],
									"destination" : [ "obj-2", 0 ],
									"hidden" : 0,
									"midpoints" : [  ]
								}

							}
 ]
					}
,
					"saved_object_attributes" : 					{
						"default_fontface" : 0,
						"globalpatchername" : "",
						"default_fontname" : "Arial",
						"fontname" : "Arial",
						"default_fontsize" : 12.0,
						"fontface" : 0,
						"fontsize" : 12.0
					}

				}

			}
, 			{
				"box" : 				{
					"maxclass" : "newobj",
					"text" : "s #2to.lemur",
					"patching_rect" : [ 127.0, 140.0, 77.0, 20.0 ],
					"numinlets" : 1,
					"fontname" : "Arial",
					"numoutlets" : 0,
					"fontsize" : 12.0,
					"id" : "obj-19"
				}

			}
, 			{
				"box" : 				{
					"maxclass" : "newobj",
					"text" : "p halfScreenLayout",
					"patching_rect" : [ 15.0, 97.0, 114.0, 20.0 ],
					"numinlets" : 1,
					"fontname" : "Arial",
					"numoutlets" : 1,
					"outlettype" : [ "" ],
					"fontsize" : 12.0,
					"id" : "obj-17",
					"patcher" : 					{
						"fileversion" : 1,
						"rect" : [ 513.0, 339.0, 640.0, 480.0 ],
						"bglocked" : 0,
						"defrect" : [ 513.0, 339.0, 640.0, 480.0 ],
						"openrect" : [ 0.0, 0.0, 0.0, 0.0 ],
						"openinpresentation" : 0,
						"default_fontsize" : 12.0,
						"default_fontface" : 0,
						"default_fontname" : "Arial",
						"gridonopen" : 0,
						"gridsize" : [ 15.0, 15.0 ],
						"gridsnaponopen" : 0,
						"toolbarvisible" : 1,
						"boxanimatetime" : 200,
						"imprint" : 0,
						"enablehscroll" : 1,
						"enablevscroll" : 1,
						"devicewidth" : 0.0,
						"boxes" : [ 							{
								"box" : 								{
									"maxclass" : "outlet",
									"patching_rect" : [ 62.0, 151.0, 25.0, 25.0 ],
									"numinlets" : 1,
									"numoutlets" : 0,
									"id" : "obj-6",
									"comment" : ""
								}

							}
, 							{
								"box" : 								{
									"maxclass" : "inlet",
									"patching_rect" : [ 69.0, 33.0, 25.0, 25.0 ],
									"numinlets" : 0,
									"numoutlets" : 1,
									"outlettype" : [ "bang" ],
									"id" : "obj-4",
									"comment" : ""
								}

							}
 ],
						"lines" : [  ]
					}
,
					"saved_object_attributes" : 					{
						"default_fontface" : 0,
						"globalpatchername" : "",
						"default_fontname" : "Arial",
						"fontname" : "Arial",
						"default_fontsize" : 12.0,
						"fontface" : 0,
						"fontsize" : 12.0
					}

				}

			}
, 			{
				"box" : 				{
					"maxclass" : "newobj",
					"text" : "sel half full",
					"patching_rect" : [ 15.0, 40.0, 67.0, 20.0 ],
					"numinlets" : 1,
					"fontname" : "Arial",
					"numoutlets" : 3,
					"outlettype" : [ "bang", "bang", "" ],
					"fontsize" : 12.0,
					"id" : "obj-16"
				}

			}
, 			{
				"box" : 				{
					"maxclass" : "newobj",
					"text" : "in 1",
					"patching_rect" : [ 15.0, 14.0, 30.0, 20.0 ],
					"numinlets" : 1,
					"fontname" : "Arial",
					"numoutlets" : 1,
					"outlettype" : [ "" ],
					"fontsize" : 12.0,
					"id" : "obj-2",
					"saved_object_attributes" : 					{
						"attr_comment" : ""
					}

				}

			}
, 			{
				"box" : 				{
					"maxclass" : "newobj",
					"text" : "Mu.lemurClient #1/DeviceOn/x #2",
					"patching_rect" : [ 20.0, 189.0, 188.0, 20.0 ],
					"numinlets" : 3,
					"fontname" : "Arial",
					"numoutlets" : 1,
					"outlettype" : [ "" ],
					"fontsize" : 12.0,
					"id" : "obj-32"
				}

			}
, 			{
				"box" : 				{
					"maxclass" : "toggle",
					"patching_rect" : [ 20.0, 211.0, 20.0, 20.0 ],
					"numinlets" : 1,
					"numoutlets" : 1,
					"outlettype" : [ "int" ],
					"id" : "obj-50"
				}

			}
, 			{
				"box" : 				{
					"maxclass" : "newobj",
					"text" : "Mu.deviceParameter #1 \"Device On\" #2",
					"patching_rect" : [ 19.0, 232.0, 266.0, 20.0 ],
					"numinlets" : 3,
					"fontname" : "Arial",
					"numoutlets" : 3,
					"outlettype" : [ "", "", "" ],
					"fontsize" : 12.0,
					"id" : "obj-48"
				}

			}
 ],
		"lines" : [ 			{
				"patchline" : 				{
					"source" : [ "obj-14", 0 ],
					"destination" : [ "obj-15", 0 ],
					"hidden" : 0,
					"midpoints" : [  ]
				}

			}
, 			{
				"patchline" : 				{
					"source" : [ "obj-15", 0 ],
					"destination" : [ "obj-13", 0 ],
					"hidden" : 0,
					"midpoints" : [ 917.0, 243.5, 901.5, 243.5, 901.5, 168.5, 918.0, 168.5 ]
				}

			}
, 			{
				"patchline" : 				{
					"source" : [ "obj-13", 0 ],
					"destination" : [ "obj-14", 0 ],
					"hidden" : 0,
					"midpoints" : [  ]
				}

			}
, 			{
				"patchline" : 				{
					"source" : [ "obj-23", 0 ],
					"destination" : [ "obj-22", 0 ],
					"hidden" : 0,
					"midpoints" : [  ]
				}

			}
, 			{
				"patchline" : 				{
					"source" : [ "obj-22", 0 ],
					"destination" : [ "obj-18", 0 ],
					"hidden" : 0,
					"midpoints" : [  ]
				}

			}
, 			{
				"patchline" : 				{
					"source" : [ "obj-10", 0 ],
					"destination" : [ "obj-11", 0 ],
					"hidden" : 0,
					"midpoints" : [ 663.5, 314.0, 647.5, 314.0, 647.5, 170.0, 663.5, 170.0 ]
				}

			}
, 			{
				"patchline" : 				{
					"source" : [ "obj-11", 0 ],
					"destination" : [ "obj-9", 0 ],
					"hidden" : 0,
					"midpoints" : [  ]
				}

			}
, 			{
				"patchline" : 				{
					"source" : [ "obj-9", 0 ],
					"destination" : [ "obj-23", 0 ],
					"hidden" : 0,
					"midpoints" : [  ]
				}

			}
, 			{
				"patchline" : 				{
					"source" : [ "obj-18", 0 ],
					"destination" : [ "obj-10", 0 ],
					"hidden" : 0,
					"midpoints" : [  ]
				}

			}
, 			{
				"patchline" : 				{
					"source" : [ "obj-1", 0 ],
					"destination" : [ "obj-7", 0 ],
					"hidden" : 0,
					"midpoints" : [  ]
				}

			}
, 			{
				"patchline" : 				{
					"source" : [ "obj-8", 0 ],
					"destination" : [ "obj-5", 0 ],
					"hidden" : 0,
					"midpoints" : [  ]
				}

			}
, 			{
				"patchline" : 				{
					"source" : [ "obj-5", 0 ],
					"destination" : [ "obj-8", 0 ],
					"hidden" : 0,
					"midpoints" : [ 378.0, 222.0, 354.0, 222.0, 354.0, 174.0, 378.5, 174.0 ]
				}

			}
, 			{
				"patchline" : 				{
					"source" : [ "obj-50", 0 ],
					"destination" : [ "obj-48", 0 ],
					"hidden" : 0,
					"midpoints" : [  ]
				}

			}
, 			{
				"patchline" : 				{
					"source" : [ "obj-48", 0 ],
					"destination" : [ "obj-32", 0 ],
					"hidden" : 0,
					"midpoints" : [ 28.5, 257.0, 13.0, 257.0, 13.0, 182.0, 29.5, 182.0 ]
				}

			}
, 			{
				"patchline" : 				{
					"source" : [ "obj-2", 0 ],
					"destination" : [ "obj-16", 0 ],
					"hidden" : 0,
					"midpoints" : [  ]
				}

			}
, 			{
				"patchline" : 				{
					"source" : [ "obj-16", 0 ],
					"destination" : [ "obj-17", 0 ],
					"hidden" : 0,
					"midpoints" : [  ]
				}

			}
, 			{
				"patchline" : 				{
					"source" : [ "obj-16", 1 ],
					"destination" : [ "obj-59", 0 ],
					"hidden" : 0,
					"midpoints" : [  ]
				}

			}
, 			{
				"patchline" : 				{
					"source" : [ "obj-17", 0 ],
					"destination" : [ "obj-19", 0 ],
					"hidden" : 0,
					"midpoints" : [ 24.5, 121.5, 136.5, 121.5 ]
				}

			}
, 			{
				"patchline" : 				{
					"source" : [ "obj-59", 0 ],
					"destination" : [ "obj-19", 0 ],
					"hidden" : 0,
					"midpoints" : [ 48.5, 91.5, 136.5, 91.5 ]
				}

			}
, 			{
				"patchline" : 				{
					"source" : [ "obj-32", 0 ],
					"destination" : [ "obj-50", 0 ],
					"hidden" : 0,
					"midpoints" : [  ]
				}

			}
, 			{
				"patchline" : 				{
					"source" : [ "obj-7", 0 ],
					"destination" : [ "obj-1", 0 ],
					"hidden" : 0,
					"midpoints" : [ 377.5, 279.0, 354.0, 279.0, 354.0, 231.0, 377.5, 231.0 ]
				}

			}
, 			{
				"patchline" : 				{
					"source" : [ "obj-4", 0 ],
					"destination" : [ "obj-6", 0 ],
					"hidden" : 0,
					"midpoints" : [ 376.5, 314.0, 376.5, 314.0 ]
				}

			}
, 			{
				"patchline" : 				{
					"source" : [ "obj-6", 0 ],
					"destination" : [ "obj-4", 0 ],
					"hidden" : 0,
					"midpoints" : [ 376.5, 338.0, 353.0, 338.0, 353.0, 290.0, 376.5, 290.0 ]
				}

			}
 ]
	}

}
