{
	"patcher" : 	{
		"fileversion" : 1,
		"rect" : [ 251.0, 176.0, 852.0, 372.0 ],
		"bglocked" : 0,
		"defrect" : [ 251.0, 176.0, 852.0, 372.0 ],
		"openrect" : [ 0.0, 0.0, 0.0, 0.0 ],
		"openinpresentation" : 0,
		"default_fontsize" : 12.0,
		"default_fontface" : 0,
		"default_fontname" : "Arial",
		"gridonopen" : 0,
		"gridsize" : [ 15.0, 15.0 ],
		"gridsnaponopen" : 0,
		"toolbarvisible" : 1,
		"boxanimatetime" : 200,
		"imprint" : 0,
		"enablehscroll" : 1,
		"enablevscroll" : 1,
		"devicewidth" : 0.0,
		"boxes" : [ 			{
				"box" : 				{
					"maxclass" : "newobj",
					"text" : "Mu.lemurClient #1/Range/x #2",
					"fontname" : "Arial",
					"fontsize" : 12.0,
					"numinlets" : 3,
					"numoutlets" : 1,
					"patching_rect" : [ 301.0, 249.0, 173.0, 20.0 ],
					"id" : "obj-6",
					"outlettype" : [ "" ]
				}

			}
, 			{
				"box" : 				{
					"maxclass" : "newobj",
					"text" : "Mu.deviceParameter #1 Range #2",
					"fontname" : "Arial",
					"fontsize" : 12.0,
					"numinlets" : 3,
					"numoutlets" : 3,
					"patching_rect" : [ 300.0, 277.0, 193.0, 20.0 ],
					"id" : "obj-7",
					"outlettype" : [ "", "", "" ]
				}

			}
, 			{
				"box" : 				{
					"maxclass" : "newobj",
					"text" : "Mu.lemurClient #1/Lowest/x #2",
					"fontname" : "Arial",
					"fontsize" : 12.0,
					"numinlets" : 3,
					"numoutlets" : 1,
					"patching_rect" : [ 302.0, 165.0, 175.0, 20.0 ],
					"id" : "obj-4",
					"outlettype" : [ "" ]
				}

			}
, 			{
				"box" : 				{
					"maxclass" : "newobj",
					"text" : "Mu.deviceParameter #1 Lowest #2",
					"fontname" : "Arial",
					"fontsize" : 12.0,
					"numinlets" : 3,
					"numoutlets" : 3,
					"patching_rect" : [ 301.0, 193.0, 196.0, 20.0 ],
					"id" : "obj-5",
					"outlettype" : [ "", "", "" ]
				}

			}
, 			{
				"box" : 				{
					"maxclass" : "newobj",
					"text" : "Mu.lemurClient #1/Pitch/x #2",
					"fontname" : "Arial",
					"fontsize" : 12.0,
					"numinlets" : 3,
					"numoutlets" : 1,
					"patching_rect" : [ 24.5, 248.5, 164.0, 20.0 ],
					"id" : "obj-1",
					"outlettype" : [ "" ]
				}

			}
, 			{
				"box" : 				{
					"maxclass" : "newobj",
					"text" : "Mu.deviceParameter #1 Pitch #2",
					"fontname" : "Arial",
					"fontsize" : 12.0,
					"numinlets" : 3,
					"numoutlets" : 3,
					"patching_rect" : [ 23.5, 276.5, 185.0, 20.0 ],
					"id" : "obj-3",
					"outlettype" : [ "", "", "" ]
				}

			}
, 			{
				"box" : 				{
					"maxclass" : "newobj",
					"text" : "p fullScreenLayout",
					"fontname" : "Arial",
					"fontsize" : 12.0,
					"numinlets" : 1,
					"numoutlets" : 1,
					"patching_rect" : [ 39.0, 67.0, 110.0, 20.0 ],
					"id" : "obj-59",
					"outlettype" : [ "" ],
					"patcher" : 					{
						"fileversion" : 1,
						"rect" : [ 513.0, 339.0, 640.0, 480.0 ],
						"bglocked" : 0,
						"defrect" : [ 513.0, 339.0, 640.0, 480.0 ],
						"openrect" : [ 0.0, 0.0, 0.0, 0.0 ],
						"openinpresentation" : 0,
						"default_fontsize" : 12.0,
						"default_fontface" : 0,
						"default_fontname" : "Arial",
						"gridonopen" : 0,
						"gridsize" : [ 15.0, 15.0 ],
						"gridsnaponopen" : 0,
						"toolbarvisible" : 1,
						"boxanimatetime" : 200,
						"imprint" : 0,
						"enablehscroll" : 1,
						"enablevscroll" : 1,
						"devicewidth" : 0.0,
						"boxes" : [ 							{
								"box" : 								{
									"maxclass" : "comment",
									"text" : "Small example of custom layout messages you can send when your device is full sized. Half/Full state is automatically handled with the templates layout buttons.",
									"linecount" : 4,
									"fontname" : "Arial",
									"fontsize" : 12.0,
									"numinlets" : 1,
									"numoutlets" : 0,
									"patching_rect" : [ 123.0, 101.0, 265.0, 62.0 ],
									"id" : "obj-3"
								}

							}
, 							{
								"box" : 								{
									"maxclass" : "message",
									"text" : "#1/Multiball @rect 0 0 300 100, #1/CustomButton/x 0.",
									"fontname" : "Arial",
									"fontsize" : 12.0,
									"numinlets" : 2,
									"numoutlets" : 1,
									"patching_rect" : [ 69.0, 227.0, 296.0, 18.0 ],
									"id" : "obj-2",
									"outlettype" : [ "" ]
								}

							}
, 							{
								"box" : 								{
									"maxclass" : "outlet",
									"numinlets" : 1,
									"numoutlets" : 0,
									"patching_rect" : [ 69.0, 410.0, 25.0, 25.0 ],
									"id" : "obj-6",
									"comment" : ""
								}

							}
, 							{
								"box" : 								{
									"maxclass" : "inlet",
									"numinlets" : 0,
									"numoutlets" : 1,
									"patching_rect" : [ 69.0, 33.0, 25.0, 25.0 ],
									"id" : "obj-4",
									"outlettype" : [ "bang" ],
									"comment" : ""
								}

							}
 ],
						"lines" : [ 							{
								"patchline" : 								{
									"source" : [ "obj-2", 0 ],
									"destination" : [ "obj-6", 0 ],
									"hidden" : 0,
									"midpoints" : [  ]
								}

							}
, 							{
								"patchline" : 								{
									"source" : [ "obj-4", 0 ],
									"destination" : [ "obj-2", 0 ],
									"hidden" : 0,
									"midpoints" : [  ]
								}

							}
 ]
					}
,
					"saved_object_attributes" : 					{
						"fontname" : "Arial",
						"globalpatchername" : "",
						"default_fontsize" : 12.0,
						"fontface" : 0,
						"fontsize" : 12.0,
						"default_fontface" : 0,
						"default_fontname" : "Arial"
					}

				}

			}
, 			{
				"box" : 				{
					"maxclass" : "newobj",
					"text" : "s #2to.lemur",
					"fontname" : "Arial",
					"fontsize" : 12.0,
					"numinlets" : 1,
					"numoutlets" : 0,
					"patching_rect" : [ 137.0, 129.0, 77.0, 20.0 ],
					"id" : "obj-19"
				}

			}
, 			{
				"box" : 				{
					"maxclass" : "newobj",
					"text" : "p halfScreenLayout",
					"fontname" : "Arial",
					"fontsize" : 12.0,
					"numinlets" : 1,
					"numoutlets" : 1,
					"patching_rect" : [ 15.0, 97.0, 114.0, 20.0 ],
					"id" : "obj-17",
					"outlettype" : [ "" ],
					"patcher" : 					{
						"fileversion" : 1,
						"rect" : [ 513.0, 339.0, 640.0, 480.0 ],
						"bglocked" : 0,
						"defrect" : [ 513.0, 339.0, 640.0, 480.0 ],
						"openrect" : [ 0.0, 0.0, 0.0, 0.0 ],
						"openinpresentation" : 0,
						"default_fontsize" : 12.0,
						"default_fontface" : 0,
						"default_fontname" : "Arial",
						"gridonopen" : 0,
						"gridsize" : [ 15.0, 15.0 ],
						"gridsnaponopen" : 0,
						"toolbarvisible" : 1,
						"boxanimatetime" : 200,
						"imprint" : 0,
						"enablehscroll" : 1,
						"enablevscroll" : 1,
						"devicewidth" : 0.0,
						"boxes" : [ 							{
								"box" : 								{
									"maxclass" : "outlet",
									"numinlets" : 1,
									"numoutlets" : 0,
									"patching_rect" : [ 62.0, 151.0, 25.0, 25.0 ],
									"id" : "obj-6",
									"comment" : ""
								}

							}
, 							{
								"box" : 								{
									"maxclass" : "inlet",
									"numinlets" : 0,
									"numoutlets" : 1,
									"patching_rect" : [ 69.0, 33.0, 25.0, 25.0 ],
									"id" : "obj-4",
									"outlettype" : [ "bang" ],
									"comment" : ""
								}

							}
 ],
						"lines" : [  ]
					}
,
					"saved_object_attributes" : 					{
						"fontname" : "Arial",
						"globalpatchername" : "",
						"default_fontsize" : 12.0,
						"fontface" : 0,
						"fontsize" : 12.0,
						"default_fontface" : 0,
						"default_fontname" : "Arial"
					}

				}

			}
, 			{
				"box" : 				{
					"maxclass" : "newobj",
					"text" : "sel half full",
					"fontname" : "Arial",
					"fontsize" : 12.0,
					"numinlets" : 1,
					"numoutlets" : 3,
					"patching_rect" : [ 15.0, 40.0, 67.0, 20.0 ],
					"id" : "obj-16",
					"outlettype" : [ "bang", "bang", "" ]
				}

			}
, 			{
				"box" : 				{
					"maxclass" : "newobj",
					"text" : "in 1",
					"fontname" : "Arial",
					"fontsize" : 12.0,
					"numinlets" : 1,
					"numoutlets" : 1,
					"patching_rect" : [ 15.0, 14.0, 30.0, 20.0 ],
					"id" : "obj-2",
					"outlettype" : [ "" ],
					"saved_object_attributes" : 					{
						"attr_comment" : ""
					}

				}

			}
, 			{
				"box" : 				{
					"maxclass" : "newobj",
					"text" : "Mu.lemurClient #1/DeviceOn/x #2",
					"fontname" : "Arial",
					"fontsize" : 12.0,
					"numinlets" : 3,
					"numoutlets" : 1,
					"patching_rect" : [ 22.0, 159.0, 188.0, 20.0 ],
					"id" : "obj-32",
					"outlettype" : [ "" ]
				}

			}
, 			{
				"box" : 				{
					"maxclass" : "toggle",
					"numinlets" : 1,
					"numoutlets" : 1,
					"patching_rect" : [ 22.0, 181.0, 20.0, 20.0 ],
					"id" : "obj-50",
					"outlettype" : [ "int" ]
				}

			}
, 			{
				"box" : 				{
					"maxclass" : "newobj",
					"text" : "Mu.deviceParameter #1 \"Device On\" #2",
					"fontname" : "Arial",
					"fontsize" : 12.0,
					"numinlets" : 3,
					"numoutlets" : 3,
					"patching_rect" : [ 21.0, 202.0, 266.0, 20.0 ],
					"id" : "obj-48",
					"outlettype" : [ "", "", "" ]
				}

			}
 ],
		"lines" : [ 			{
				"patchline" : 				{
					"source" : [ "obj-7", 0 ],
					"destination" : [ "obj-6", 0 ],
					"hidden" : 0,
					"midpoints" : [ 309.5, 307.0, 294.0, 307.0, 294.0, 242.0, 310.5, 242.0 ]
				}

			}
, 			{
				"patchline" : 				{
					"source" : [ "obj-6", 0 ],
					"destination" : [ "obj-7", 0 ],
					"hidden" : 0,
					"midpoints" : [  ]
				}

			}
, 			{
				"patchline" : 				{
					"source" : [ "obj-5", 0 ],
					"destination" : [ "obj-4", 0 ],
					"hidden" : 0,
					"midpoints" : [ 310.5, 223.0, 295.0, 223.0, 295.0, 158.0, 311.5, 158.0 ]
				}

			}
, 			{
				"patchline" : 				{
					"source" : [ "obj-4", 0 ],
					"destination" : [ "obj-5", 0 ],
					"hidden" : 0,
					"midpoints" : [  ]
				}

			}
, 			{
				"patchline" : 				{
					"source" : [ "obj-1", 0 ],
					"destination" : [ "obj-3", 0 ],
					"hidden" : 0,
					"midpoints" : [  ]
				}

			}
, 			{
				"patchline" : 				{
					"source" : [ "obj-3", 0 ],
					"destination" : [ "obj-1", 0 ],
					"hidden" : 0,
					"midpoints" : [ 33.0, 306.5, 17.5, 306.5, 17.5, 241.5, 34.0, 241.5 ]
				}

			}
, 			{
				"patchline" : 				{
					"source" : [ "obj-50", 0 ],
					"destination" : [ "obj-48", 0 ],
					"hidden" : 0,
					"midpoints" : [  ]
				}

			}
, 			{
				"patchline" : 				{
					"source" : [ "obj-48", 0 ],
					"destination" : [ "obj-32", 0 ],
					"hidden" : 0,
					"midpoints" : [ 30.5, 227.0, 15.0, 227.0, 15.0, 152.0, 31.5, 152.0 ]
				}

			}
, 			{
				"patchline" : 				{
					"source" : [ "obj-2", 0 ],
					"destination" : [ "obj-16", 0 ],
					"hidden" : 0,
					"midpoints" : [  ]
				}

			}
, 			{
				"patchline" : 				{
					"source" : [ "obj-16", 0 ],
					"destination" : [ "obj-17", 0 ],
					"hidden" : 0,
					"midpoints" : [  ]
				}

			}
, 			{
				"patchline" : 				{
					"source" : [ "obj-16", 1 ],
					"destination" : [ "obj-59", 0 ],
					"hidden" : 0,
					"midpoints" : [  ]
				}

			}
, 			{
				"patchline" : 				{
					"source" : [ "obj-17", 0 ],
					"destination" : [ "obj-19", 0 ],
					"hidden" : 0,
					"midpoints" : [ 24.5, 121.5, 146.5, 121.5 ]
				}

			}
, 			{
				"patchline" : 				{
					"source" : [ "obj-59", 0 ],
					"destination" : [ "obj-19", 0 ],
					"hidden" : 0,
					"midpoints" : [ 48.5, 91.5, 146.5, 91.5 ]
				}

			}
, 			{
				"patchline" : 				{
					"source" : [ "obj-32", 0 ],
					"destination" : [ "obj-50", 0 ],
					"hidden" : 0,
					"midpoints" : [  ]
				}

			}
 ]
	}

}
