{
	"patcher" : 	{
		"fileversion" : 1,
		"rect" : [ 429.0, 402.0, 1408.0, 817.0 ],
		"bglocked" : 0,
		"defrect" : [ 429.0, 402.0, 1408.0, 817.0 ],
		"openrect" : [ 0.0, 0.0, 0.0, 0.0 ],
		"openinpresentation" : 0,
		"default_fontsize" : 12.0,
		"default_fontface" : 0,
		"default_fontname" : "Arial",
		"gridonopen" : 0,
		"gridsize" : [ 15.0, 15.0 ],
		"gridsnaponopen" : 0,
		"toolbarvisible" : 1,
		"boxanimatetime" : 200,
		"imprint" : 0,
		"enablehscroll" : 1,
		"enablevscroll" : 1,
		"devicewidth" : 0.0,
		"boxes" : [ 			{
				"box" : 				{
					"maxclass" : "newobj",
					"text" : "delay 2000",
					"numinlets" : 2,
					"fontname" : "Arial",
					"numoutlets" : 1,
					"outlettype" : [ "bang" ],
					"patching_rect" : [ 228.0, 60.0, 69.0, 20.0 ],
					"fontsize" : 12.0,
					"id" : "obj-51"
				}

			}
, 			{
				"box" : 				{
					"maxclass" : "newobj",
					"text" : "loadbang",
					"numinlets" : 1,
					"fontname" : "Arial",
					"numoutlets" : 1,
					"outlettype" : [ "bang" ],
					"patching_rect" : [ 228.0, 34.0, 60.0, 20.0 ],
					"fontsize" : 12.0,
					"id" : "obj-49"
				}

			}
, 			{
				"box" : 				{
					"maxclass" : "newobj",
					"text" : "route name",
					"numinlets" : 1,
					"fontname" : "Arial",
					"numoutlets" : 2,
					"outlettype" : [ "", "" ],
					"patching_rect" : [ 808.0, 686.0, 71.0, 20.0 ],
					"fontsize" : 12.0,
					"id" : "obj-45"
				}

			}
, 			{
				"box" : 				{
					"maxclass" : "newobj",
					"text" : "Mu.lemurClient #1/InstrumentRack/Macro8Name/setName #2",
					"numinlets" : 3,
					"fontname" : "Arial",
					"numoutlets" : 1,
					"outlettype" : [ "" ],
					"patching_rect" : [ 807.0, 721.0, 339.0, 20.0 ],
					"fontsize" : 12.0,
					"id" : "obj-46"
				}

			}
, 			{
				"box" : 				{
					"maxclass" : "newobj",
					"text" : "live.object",
					"numinlets" : 2,
					"fontname" : "Arial",
					"numoutlets" : 1,
					"outlettype" : [ "" ],
					"patching_rect" : [ 808.0, 662.0, 64.0, 20.0 ],
					"fontsize" : 12.0,
					"id" : "obj-47",
					"saved_object_attributes" : 					{
						"_persistence" : 1
					}

				}

			}
, 			{
				"box" : 				{
					"maxclass" : "newobj",
					"text" : "route name",
					"numinlets" : 1,
					"fontname" : "Arial",
					"numoutlets" : 2,
					"outlettype" : [ "", "" ],
					"patching_rect" : [ 810.0, 524.0, 71.0, 20.0 ],
					"fontsize" : 12.0,
					"id" : "obj-42"
				}

			}
, 			{
				"box" : 				{
					"maxclass" : "newobj",
					"text" : "Mu.lemurClient #1/InstrumentRack/Macro7Name/setName #2",
					"numinlets" : 3,
					"fontname" : "Arial",
					"numoutlets" : 1,
					"outlettype" : [ "" ],
					"patching_rect" : [ 809.0, 559.0, 339.0, 20.0 ],
					"fontsize" : 12.0,
					"id" : "obj-43"
				}

			}
, 			{
				"box" : 				{
					"maxclass" : "newobj",
					"text" : "live.object",
					"numinlets" : 2,
					"fontname" : "Arial",
					"numoutlets" : 1,
					"outlettype" : [ "" ],
					"patching_rect" : [ 810.0, 500.0, 64.0, 20.0 ],
					"fontsize" : 12.0,
					"id" : "obj-44",
					"saved_object_attributes" : 					{
						"_persistence" : 1
					}

				}

			}
, 			{
				"box" : 				{
					"maxclass" : "newobj",
					"text" : "route name",
					"numinlets" : 1,
					"fontname" : "Arial",
					"numoutlets" : 2,
					"outlettype" : [ "", "" ],
					"patching_rect" : [ 813.0, 361.0, 71.0, 20.0 ],
					"fontsize" : 12.0,
					"id" : "obj-39"
				}

			}
, 			{
				"box" : 				{
					"maxclass" : "newobj",
					"text" : "Mu.lemurClient #1/InstrumentRack/Macro6Name/setName #2",
					"numinlets" : 3,
					"fontname" : "Arial",
					"numoutlets" : 1,
					"outlettype" : [ "" ],
					"patching_rect" : [ 812.0, 396.0, 339.0, 20.0 ],
					"fontsize" : 12.0,
					"id" : "obj-40"
				}

			}
, 			{
				"box" : 				{
					"maxclass" : "newobj",
					"text" : "live.object",
					"numinlets" : 2,
					"fontname" : "Arial",
					"numoutlets" : 1,
					"outlettype" : [ "" ],
					"patching_rect" : [ 813.0, 337.0, 64.0, 20.0 ],
					"fontsize" : 12.0,
					"id" : "obj-41",
					"saved_object_attributes" : 					{
						"_persistence" : 1
					}

				}

			}
, 			{
				"box" : 				{
					"maxclass" : "newobj",
					"text" : "route name",
					"numinlets" : 1,
					"fontname" : "Arial",
					"numoutlets" : 2,
					"outlettype" : [ "", "" ],
					"patching_rect" : [ 819.0, 203.0, 71.0, 20.0 ],
					"fontsize" : 12.0,
					"id" : "obj-36"
				}

			}
, 			{
				"box" : 				{
					"maxclass" : "newobj",
					"text" : "Mu.lemurClient #1/InstrumentRack/Macro5Name/setName #2",
					"numinlets" : 3,
					"fontname" : "Arial",
					"numoutlets" : 1,
					"outlettype" : [ "" ],
					"patching_rect" : [ 818.0, 238.0, 339.0, 20.0 ],
					"fontsize" : 12.0,
					"id" : "obj-37"
				}

			}
, 			{
				"box" : 				{
					"maxclass" : "newobj",
					"text" : "live.object",
					"numinlets" : 2,
					"fontname" : "Arial",
					"numoutlets" : 1,
					"outlettype" : [ "" ],
					"patching_rect" : [ 819.0, 179.0, 64.0, 20.0 ],
					"fontsize" : 12.0,
					"id" : "obj-38",
					"saved_object_attributes" : 					{
						"_persistence" : 1
					}

				}

			}
, 			{
				"box" : 				{
					"maxclass" : "newobj",
					"text" : "route name",
					"numinlets" : 1,
					"fontname" : "Arial",
					"numoutlets" : 2,
					"outlettype" : [ "", "" ],
					"patching_rect" : [ 372.0, 715.0, 71.0, 20.0 ],
					"fontsize" : 12.0,
					"id" : "obj-33"
				}

			}
, 			{
				"box" : 				{
					"maxclass" : "newobj",
					"text" : "Mu.lemurClient #1/InstrumentRack/Macro4Name/setName #2",
					"numinlets" : 3,
					"fontname" : "Arial",
					"numoutlets" : 1,
					"outlettype" : [ "" ],
					"patching_rect" : [ 371.0, 753.0, 339.0, 20.0 ],
					"fontsize" : 12.0,
					"id" : "obj-34"
				}

			}
, 			{
				"box" : 				{
					"maxclass" : "newobj",
					"text" : "live.object",
					"numinlets" : 2,
					"fontname" : "Arial",
					"numoutlets" : 1,
					"outlettype" : [ "" ],
					"patching_rect" : [ 372.0, 691.0, 64.0, 20.0 ],
					"fontsize" : 12.0,
					"id" : "obj-35",
					"saved_object_attributes" : 					{
						"_persistence" : 1
					}

				}

			}
, 			{
				"box" : 				{
					"maxclass" : "newobj",
					"text" : "route name",
					"numinlets" : 1,
					"fontname" : "Arial",
					"numoutlets" : 2,
					"outlettype" : [ "", "" ],
					"patching_rect" : [ 375.0, 538.0, 71.0, 20.0 ],
					"fontsize" : 12.0,
					"id" : "obj-29"
				}

			}
, 			{
				"box" : 				{
					"maxclass" : "newobj",
					"text" : "Mu.lemurClient #1/InstrumentRack/Macro3Name/setName #2",
					"numinlets" : 3,
					"fontname" : "Arial",
					"numoutlets" : 1,
					"outlettype" : [ "" ],
					"patching_rect" : [ 374.0, 576.0, 339.0, 20.0 ],
					"fontsize" : 12.0,
					"id" : "obj-30"
				}

			}
, 			{
				"box" : 				{
					"maxclass" : "newobj",
					"text" : "live.object",
					"numinlets" : 2,
					"fontname" : "Arial",
					"numoutlets" : 1,
					"outlettype" : [ "" ],
					"patching_rect" : [ 375.0, 514.0, 64.0, 20.0 ],
					"fontsize" : 12.0,
					"id" : "obj-31",
					"saved_object_attributes" : 					{
						"_persistence" : 1
					}

				}

			}
, 			{
				"box" : 				{
					"maxclass" : "newobj",
					"text" : "route name",
					"numinlets" : 1,
					"fontname" : "Arial",
					"numoutlets" : 2,
					"outlettype" : [ "", "" ],
					"patching_rect" : [ 376.0, 366.0, 71.0, 20.0 ],
					"fontsize" : 12.0,
					"id" : "obj-24"
				}

			}
, 			{
				"box" : 				{
					"maxclass" : "newobj",
					"text" : "Mu.lemurClient #1/InstrumentRack/Macro2Name/setName #2",
					"numinlets" : 3,
					"fontname" : "Arial",
					"numoutlets" : 1,
					"outlettype" : [ "" ],
					"patching_rect" : [ 375.0, 404.0, 339.0, 20.0 ],
					"fontsize" : 12.0,
					"id" : "obj-26"
				}

			}
, 			{
				"box" : 				{
					"maxclass" : "newobj",
					"text" : "live.object",
					"numinlets" : 2,
					"fontname" : "Arial",
					"numoutlets" : 1,
					"outlettype" : [ "" ],
					"patching_rect" : [ 376.0, 342.0, 64.0, 20.0 ],
					"fontsize" : 12.0,
					"id" : "obj-28",
					"saved_object_attributes" : 					{
						"_persistence" : 1
					}

				}

			}
, 			{
				"box" : 				{
					"maxclass" : "newobj",
					"text" : "Mu.lemurClient #1/DeviceSync/x #2",
					"numinlets" : 3,
					"fontname" : "Arial",
					"numoutlets" : 1,
					"outlettype" : [ "" ],
					"patching_rect" : [ 301.0, 79.0, 201.0, 20.0 ],
					"fontsize" : 12.0,
					"id" : "obj-23"
				}

			}
, 			{
				"box" : 				{
					"maxclass" : "newobj",
					"text" : "route name",
					"numinlets" : 1,
					"fontname" : "Arial",
					"numoutlets" : 2,
					"outlettype" : [ "", "" ],
					"patching_rect" : [ 380.0, 202.0, 71.0, 20.0 ],
					"fontsize" : 12.0,
					"id" : "obj-22"
				}

			}
, 			{
				"box" : 				{
					"maxclass" : "newobj",
					"text" : "Mu.lemurClient #1/InstrumentRack/Macro1Name/setName #2",
					"numinlets" : 3,
					"fontname" : "Arial",
					"numoutlets" : 1,
					"outlettype" : [ "" ],
					"patching_rect" : [ 379.0, 240.0, 339.0, 20.0 ],
					"fontsize" : 12.0,
					"id" : "obj-27"
				}

			}
, 			{
				"box" : 				{
					"maxclass" : "message",
					"text" : "get name",
					"numinlets" : 2,
					"fontname" : "Arial",
					"numoutlets" : 1,
					"outlettype" : [ "" ],
					"patching_rect" : [ 301.0, 108.0, 61.0, 18.0 ],
					"fontsize" : 12.0,
					"id" : "obj-25"
				}

			}
, 			{
				"box" : 				{
					"maxclass" : "newobj",
					"text" : "live.object",
					"numinlets" : 2,
					"fontname" : "Arial",
					"numoutlets" : 1,
					"outlettype" : [ "" ],
					"patching_rect" : [ 380.0, 178.0, 64.0, 20.0 ],
					"fontsize" : 12.0,
					"id" : "obj-21",
					"saved_object_attributes" : 					{
						"_persistence" : 1
					}

				}

			}
, 			{
				"box" : 				{
					"maxclass" : "newobj",
					"text" : "Mu.lemurClient #1/InstrumentRack/Macro8/x #2",
					"numinlets" : 3,
					"fontname" : "Arial",
					"numoutlets" : 1,
					"outlettype" : [ "" ],
					"patching_rect" : [ 807.0, 604.0, 267.0, 20.0 ],
					"fontsize" : 12.0,
					"id" : "obj-18"
				}

			}
, 			{
				"box" : 				{
					"maxclass" : "newobj",
					"text" : "Mu.deviceParameter #1 \"Macro 8\" #2",
					"numinlets" : 3,
					"fontname" : "Arial",
					"numoutlets" : 3,
					"outlettype" : [ "", "", "" ],
					"patching_rect" : [ 807.0, 628.0, 210.0, 20.0 ],
					"fontsize" : 12.0,
					"id" : "obj-20"
				}

			}
, 			{
				"box" : 				{
					"maxclass" : "newobj",
					"text" : "Mu.lemurClient #1/InstrumentRack/Macro7/x #2",
					"numinlets" : 3,
					"fontname" : "Arial",
					"numoutlets" : 1,
					"outlettype" : [ "" ],
					"patching_rect" : [ 809.0, 433.0, 267.0, 20.0 ],
					"fontsize" : 12.0,
					"id" : "obj-14"
				}

			}
, 			{
				"box" : 				{
					"maxclass" : "newobj",
					"text" : "Mu.deviceParameter #1 \"Macro 7\" #2",
					"numinlets" : 3,
					"fontname" : "Arial",
					"numoutlets" : 3,
					"outlettype" : [ "", "", "" ],
					"patching_rect" : [ 809.0, 458.0, 210.0, 20.0 ],
					"fontsize" : 12.0,
					"id" : "obj-15"
				}

			}
, 			{
				"box" : 				{
					"maxclass" : "newobj",
					"text" : "Mu.lemurClient #1/InstrumentRack/Macro6/x #2",
					"numinlets" : 3,
					"fontname" : "Arial",
					"numoutlets" : 1,
					"outlettype" : [ "" ],
					"patching_rect" : [ 812.0, 273.0, 267.0, 20.0 ],
					"fontsize" : 12.0,
					"id" : "obj-12"
				}

			}
, 			{
				"box" : 				{
					"maxclass" : "newobj",
					"text" : "Mu.deviceParameter #1 \"Macro 6\" #2",
					"numinlets" : 3,
					"fontname" : "Arial",
					"numoutlets" : 3,
					"outlettype" : [ "", "", "" ],
					"patching_rect" : [ 812.0, 299.0, 210.0, 20.0 ],
					"fontsize" : 12.0,
					"id" : "obj-13"
				}

			}
, 			{
				"box" : 				{
					"maxclass" : "newobj",
					"text" : "Mu.lemurClient #1/InstrumentRack/Macro5/x #2",
					"numinlets" : 3,
					"fontname" : "Arial",
					"numoutlets" : 1,
					"outlettype" : [ "" ],
					"patching_rect" : [ 820.0, 113.0, 267.0, 20.0 ],
					"fontsize" : 12.0,
					"id" : "obj-10"
				}

			}
, 			{
				"box" : 				{
					"maxclass" : "newobj",
					"text" : "Mu.deviceParameter #1 \"Macro 5\" #2",
					"numinlets" : 3,
					"fontname" : "Arial",
					"numoutlets" : 3,
					"outlettype" : [ "", "", "" ],
					"patching_rect" : [ 820.0, 141.0, 210.0, 20.0 ],
					"fontsize" : 12.0,
					"id" : "obj-11"
				}

			}
, 			{
				"box" : 				{
					"maxclass" : "newobj",
					"text" : "Mu.lemurClient #1/InstrumentRack/Macro4/x #2",
					"numinlets" : 3,
					"fontname" : "Arial",
					"numoutlets" : 1,
					"outlettype" : [ "" ],
					"patching_rect" : [ 370.0, 619.0, 267.0, 20.0 ],
					"fontsize" : 12.0,
					"id" : "obj-8"
				}

			}
, 			{
				"box" : 				{
					"maxclass" : "newobj",
					"text" : "Mu.deviceParameter #1 \"Macro 4\" #2",
					"numinlets" : 3,
					"fontname" : "Arial",
					"numoutlets" : 3,
					"outlettype" : [ "", "", "" ],
					"patching_rect" : [ 370.0, 644.0, 210.0, 20.0 ],
					"fontsize" : 12.0,
					"id" : "obj-9"
				}

			}
, 			{
				"box" : 				{
					"maxclass" : "newobj",
					"text" : "Mu.lemurClient #1/InstrumentRack/Macro3/x #2",
					"numinlets" : 3,
					"fontname" : "Arial",
					"numoutlets" : 1,
					"outlettype" : [ "" ],
					"patching_rect" : [ 376.0, 439.0, 267.0, 20.0 ],
					"fontsize" : 12.0,
					"id" : "obj-6"
				}

			}
, 			{
				"box" : 				{
					"maxclass" : "newobj",
					"text" : "Mu.deviceParameter #1 \"Macro 3\" #2",
					"numinlets" : 3,
					"fontname" : "Arial",
					"numoutlets" : 3,
					"outlettype" : [ "", "", "" ],
					"patching_rect" : [ 376.0, 465.0, 210.0, 20.0 ],
					"fontsize" : 12.0,
					"id" : "obj-7"
				}

			}
, 			{
				"box" : 				{
					"maxclass" : "newobj",
					"text" : "Mu.lemurClient #1/InstrumentRack/Macro2/x #2",
					"numinlets" : 3,
					"fontname" : "Arial",
					"numoutlets" : 1,
					"outlettype" : [ "" ],
					"patching_rect" : [ 377.0, 274.0, 267.0, 20.0 ],
					"fontsize" : 12.0,
					"id" : "obj-4"
				}

			}
, 			{
				"box" : 				{
					"maxclass" : "newobj",
					"text" : "Mu.deviceParameter #1 \"Macro 2\" #2",
					"numinlets" : 3,
					"fontname" : "Arial",
					"numoutlets" : 3,
					"outlettype" : [ "", "", "" ],
					"patching_rect" : [ 377.0, 301.0, 210.0, 20.0 ],
					"fontsize" : 12.0,
					"id" : "obj-5"
				}

			}
, 			{
				"box" : 				{
					"maxclass" : "newobj",
					"text" : "Mu.lemurClient #1/InstrumentRack/Macro1/x #2",
					"numinlets" : 3,
					"fontname" : "Arial",
					"numoutlets" : 1,
					"outlettype" : [ "" ],
					"patching_rect" : [ 379.0, 115.0, 267.0, 20.0 ],
					"fontsize" : 12.0,
					"id" : "obj-1"
				}

			}
, 			{
				"box" : 				{
					"maxclass" : "newobj",
					"text" : "Mu.deviceParameter #1 \"Macro 1\" #2",
					"numinlets" : 3,
					"fontname" : "Arial",
					"numoutlets" : 3,
					"outlettype" : [ "", "", "" ],
					"patching_rect" : [ 379.0, 142.0, 210.0, 20.0 ],
					"fontsize" : 12.0,
					"id" : "obj-3"
				}

			}
, 			{
				"box" : 				{
					"maxclass" : "newobj",
					"text" : "p fullScreenLayout",
					"numinlets" : 1,
					"fontname" : "Arial",
					"numoutlets" : 1,
					"outlettype" : [ "" ],
					"patching_rect" : [ 39.0, 67.0, 111.0, 20.0 ],
					"fontsize" : 12.0,
					"id" : "obj-59",
					"patcher" : 					{
						"fileversion" : 1,
						"rect" : [ 513.0, 339.0, 640.0, 480.0 ],
						"bglocked" : 0,
						"defrect" : [ 513.0, 339.0, 640.0, 480.0 ],
						"openrect" : [ 0.0, 0.0, 0.0, 0.0 ],
						"openinpresentation" : 0,
						"default_fontsize" : 12.0,
						"default_fontface" : 0,
						"default_fontname" : "Arial",
						"gridonopen" : 0,
						"gridsize" : [ 15.0, 15.0 ],
						"gridsnaponopen" : 0,
						"toolbarvisible" : 1,
						"boxanimatetime" : 200,
						"imprint" : 0,
						"enablehscroll" : 1,
						"enablevscroll" : 1,
						"devicewidth" : 0.0,
						"boxes" : [ 							{
								"box" : 								{
									"maxclass" : "comment",
									"text" : "Small example of custom layout messages you can send when your device is full sized. Half/Full state is automatically handled with the templates layout buttons.",
									"linecount" : 4,
									"numinlets" : 1,
									"fontname" : "Arial",
									"numoutlets" : 0,
									"patching_rect" : [ 123.0, 101.0, 270.0, 62.0 ],
									"fontsize" : 12.0,
									"id" : "obj-3"
								}

							}
, 							{
								"box" : 								{
									"maxclass" : "message",
									"text" : "#1/Multiball @rect 0 0 300 100, #1/CustomButton/x 0.",
									"numinlets" : 2,
									"fontname" : "Arial",
									"numoutlets" : 1,
									"outlettype" : [ "" ],
									"patching_rect" : [ 69.0, 227.0, 296.0, 18.0 ],
									"fontsize" : 12.0,
									"id" : "obj-2"
								}

							}
, 							{
								"box" : 								{
									"maxclass" : "outlet",
									"numinlets" : 1,
									"numoutlets" : 0,
									"patching_rect" : [ 69.0, 410.0, 25.0, 25.0 ],
									"id" : "obj-6",
									"comment" : ""
								}

							}
, 							{
								"box" : 								{
									"maxclass" : "inlet",
									"numinlets" : 0,
									"numoutlets" : 1,
									"outlettype" : [ "bang" ],
									"patching_rect" : [ 69.0, 33.0, 25.0, 25.0 ],
									"id" : "obj-4",
									"comment" : ""
								}

							}
 ],
						"lines" : [ 							{
								"patchline" : 								{
									"source" : [ "obj-4", 0 ],
									"destination" : [ "obj-2", 0 ],
									"hidden" : 0,
									"midpoints" : [  ]
								}

							}
, 							{
								"patchline" : 								{
									"source" : [ "obj-2", 0 ],
									"destination" : [ "obj-6", 0 ],
									"hidden" : 0,
									"midpoints" : [  ]
								}

							}
 ]
					}
,
					"saved_object_attributes" : 					{
						"default_fontsize" : 12.0,
						"fontname" : "Arial",
						"fontface" : 0,
						"default_fontface" : 0,
						"fontsize" : 12.0,
						"default_fontname" : "Arial",
						"globalpatchername" : ""
					}

				}

			}
, 			{
				"box" : 				{
					"maxclass" : "newobj",
					"text" : "s #2to.lemur",
					"numinlets" : 1,
					"fontname" : "Arial",
					"numoutlets" : 0,
					"patching_rect" : [ 127.0, 140.0, 77.0, 20.0 ],
					"fontsize" : 12.0,
					"id" : "obj-19"
				}

			}
, 			{
				"box" : 				{
					"maxclass" : "newobj",
					"text" : "p halfScreenLayout",
					"numinlets" : 1,
					"fontname" : "Arial",
					"numoutlets" : 1,
					"outlettype" : [ "" ],
					"patching_rect" : [ 15.0, 97.0, 115.0, 20.0 ],
					"fontsize" : 12.0,
					"id" : "obj-17",
					"patcher" : 					{
						"fileversion" : 1,
						"rect" : [ 513.0, 339.0, 640.0, 480.0 ],
						"bglocked" : 0,
						"defrect" : [ 513.0, 339.0, 640.0, 480.0 ],
						"openrect" : [ 0.0, 0.0, 0.0, 0.0 ],
						"openinpresentation" : 0,
						"default_fontsize" : 12.0,
						"default_fontface" : 0,
						"default_fontname" : "Arial",
						"gridonopen" : 0,
						"gridsize" : [ 15.0, 15.0 ],
						"gridsnaponopen" : 0,
						"toolbarvisible" : 1,
						"boxanimatetime" : 200,
						"imprint" : 0,
						"enablehscroll" : 1,
						"enablevscroll" : 1,
						"devicewidth" : 0.0,
						"boxes" : [ 							{
								"box" : 								{
									"maxclass" : "outlet",
									"numinlets" : 1,
									"numoutlets" : 0,
									"patching_rect" : [ 62.0, 151.0, 25.0, 25.0 ],
									"id" : "obj-6",
									"comment" : ""
								}

							}
, 							{
								"box" : 								{
									"maxclass" : "inlet",
									"numinlets" : 0,
									"numoutlets" : 1,
									"outlettype" : [ "bang" ],
									"patching_rect" : [ 69.0, 33.0, 25.0, 25.0 ],
									"id" : "obj-4",
									"comment" : ""
								}

							}
 ],
						"lines" : [  ]
					}
,
					"saved_object_attributes" : 					{
						"default_fontsize" : 12.0,
						"fontname" : "Arial",
						"fontface" : 0,
						"default_fontface" : 0,
						"fontsize" : 12.0,
						"default_fontname" : "Arial",
						"globalpatchername" : ""
					}

				}

			}
, 			{
				"box" : 				{
					"maxclass" : "newobj",
					"text" : "sel half full",
					"numinlets" : 1,
					"fontname" : "Arial",
					"numoutlets" : 3,
					"outlettype" : [ "bang", "bang", "" ],
					"patching_rect" : [ 15.0, 40.0, 67.0, 20.0 ],
					"fontsize" : 12.0,
					"id" : "obj-16"
				}

			}
, 			{
				"box" : 				{
					"maxclass" : "newobj",
					"text" : "in 1",
					"numinlets" : 1,
					"fontname" : "Arial",
					"numoutlets" : 1,
					"outlettype" : [ "" ],
					"patching_rect" : [ 15.0, 14.0, 30.0, 20.0 ],
					"fontsize" : 12.0,
					"id" : "obj-2",
					"saved_object_attributes" : 					{

					}

				}

			}
, 			{
				"box" : 				{
					"maxclass" : "newobj",
					"text" : "Mu.lemurClient #1/DeviceOn/x #2",
					"numinlets" : 3,
					"fontname" : "Arial",
					"numoutlets" : 1,
					"outlettype" : [ "" ],
					"patching_rect" : [ 20.0, 189.0, 189.0, 20.0 ],
					"fontsize" : 12.0,
					"id" : "obj-32"
				}

			}
, 			{
				"box" : 				{
					"maxclass" : "toggle",
					"numinlets" : 1,
					"numoutlets" : 1,
					"outlettype" : [ "int" ],
					"patching_rect" : [ 20.0, 221.0, 20.0, 20.0 ],
					"id" : "obj-50"
				}

			}
, 			{
				"box" : 				{
					"maxclass" : "newobj",
					"text" : "Mu.deviceParameter #1 \"Device On\" #2",
					"numinlets" : 3,
					"fontname" : "Arial",
					"numoutlets" : 3,
					"outlettype" : [ "", "", "" ],
					"patching_rect" : [ 20.0, 261.0, 266.0, 20.0 ],
					"fontsize" : 12.0,
					"id" : "obj-48"
				}

			}
 ],
		"lines" : [ 			{
				"patchline" : 				{
					"source" : [ "obj-51", 0 ],
					"destination" : [ "obj-25", 0 ],
					"hidden" : 0,
					"midpoints" : [  ]
				}

			}
, 			{
				"patchline" : 				{
					"source" : [ "obj-49", 0 ],
					"destination" : [ "obj-51", 0 ],
					"hidden" : 0,
					"midpoints" : [  ]
				}

			}
, 			{
				"patchline" : 				{
					"source" : [ "obj-3", 2 ],
					"destination" : [ "obj-21", 1 ],
					"hidden" : 0,
					"midpoints" : [ 579.5, 175.0, 434.5, 175.0 ]
				}

			}
, 			{
				"patchline" : 				{
					"source" : [ "obj-25", 0 ],
					"destination" : [ "obj-21", 0 ],
					"hidden" : 0,
					"midpoints" : [ 310.5, 175.0, 389.5, 175.0 ]
				}

			}
, 			{
				"patchline" : 				{
					"source" : [ "obj-32", 0 ],
					"destination" : [ "obj-50", 0 ],
					"hidden" : 0,
					"midpoints" : [ 29.5, 210.0, 29.5, 210.0 ]
				}

			}
, 			{
				"patchline" : 				{
					"source" : [ "obj-59", 0 ],
					"destination" : [ "obj-19", 0 ],
					"hidden" : 0,
					"midpoints" : [ 48.5, 93.0, 132.0, 93.0, 132.0, 135.0, 136.5, 135.0 ]
				}

			}
, 			{
				"patchline" : 				{
					"source" : [ "obj-17", 0 ],
					"destination" : [ "obj-19", 0 ],
					"hidden" : 0,
					"midpoints" : [ 24.5, 135.0, 136.5, 135.0 ]
				}

			}
, 			{
				"patchline" : 				{
					"source" : [ "obj-16", 1 ],
					"destination" : [ "obj-59", 0 ],
					"hidden" : 0,
					"midpoints" : [ 48.5, 60.0, 48.5, 60.0 ]
				}

			}
, 			{
				"patchline" : 				{
					"source" : [ "obj-16", 0 ],
					"destination" : [ "obj-17", 0 ],
					"hidden" : 0,
					"midpoints" : [ 24.5, 60.0, 24.5, 60.0 ]
				}

			}
, 			{
				"patchline" : 				{
					"source" : [ "obj-2", 0 ],
					"destination" : [ "obj-16", 0 ],
					"hidden" : 0,
					"midpoints" : [ 24.5, 36.0, 24.5, 36.0 ]
				}

			}
, 			{
				"patchline" : 				{
					"source" : [ "obj-48", 0 ],
					"destination" : [ "obj-32", 0 ],
					"hidden" : 0,
					"midpoints" : [ 29.5, 282.0, 6.0, 282.0, 6.0, 186.0, 29.5, 186.0 ]
				}

			}
, 			{
				"patchline" : 				{
					"source" : [ "obj-50", 0 ],
					"destination" : [ "obj-48", 0 ],
					"hidden" : 0,
					"midpoints" : [ 29.5, 243.0, 29.5, 243.0 ]
				}

			}
, 			{
				"patchline" : 				{
					"source" : [ "obj-3", 0 ],
					"destination" : [ "obj-1", 0 ],
					"hidden" : 0,
					"midpoints" : [ 388.5, 163.0, 376.0, 163.0, 376.0, 112.0, 388.5, 112.0 ]
				}

			}
, 			{
				"patchline" : 				{
					"source" : [ "obj-1", 0 ],
					"destination" : [ "obj-3", 0 ],
					"hidden" : 0,
					"midpoints" : [ 388.5, 136.0, 388.5, 136.0 ]
				}

			}
, 			{
				"patchline" : 				{
					"source" : [ "obj-4", 0 ],
					"destination" : [ "obj-5", 0 ],
					"hidden" : 0,
					"midpoints" : [ 386.5, 295.0, 386.5, 295.0 ]
				}

			}
, 			{
				"patchline" : 				{
					"source" : [ "obj-5", 0 ],
					"destination" : [ "obj-4", 0 ],
					"hidden" : 0,
					"midpoints" : [ 386.5, 322.0, 364.0, 322.0, 364.0, 271.0, 386.5, 271.0 ]
				}

			}
, 			{
				"patchline" : 				{
					"source" : [ "obj-6", 0 ],
					"destination" : [ "obj-7", 0 ],
					"hidden" : 0,
					"midpoints" : [ 385.5, 460.0, 385.5, 460.0 ]
				}

			}
, 			{
				"patchline" : 				{
					"source" : [ "obj-7", 0 ],
					"destination" : [ "obj-6", 0 ],
					"hidden" : 0,
					"midpoints" : [ 385.5, 487.0, 361.0, 487.0, 361.0, 436.0, 385.5, 436.0 ]
				}

			}
, 			{
				"patchline" : 				{
					"source" : [ "obj-8", 0 ],
					"destination" : [ "obj-9", 0 ],
					"hidden" : 0,
					"midpoints" : [ 379.5, 640.0, 379.5, 640.0 ]
				}

			}
, 			{
				"patchline" : 				{
					"source" : [ "obj-9", 0 ],
					"destination" : [ "obj-8", 0 ],
					"hidden" : 0,
					"midpoints" : [ 379.5, 664.0, 367.0, 664.0, 367.0, 616.0, 379.5, 616.0 ]
				}

			}
, 			{
				"patchline" : 				{
					"source" : [ "obj-10", 0 ],
					"destination" : [ "obj-11", 0 ],
					"hidden" : 0,
					"midpoints" : [ 829.5, 133.0, 829.5, 133.0 ]
				}

			}
, 			{
				"patchline" : 				{
					"source" : [ "obj-11", 0 ],
					"destination" : [ "obj-10", 0 ],
					"hidden" : 0,
					"midpoints" : [ 829.5, 163.0, 805.0, 163.0, 805.0, 109.0, 829.5, 109.0 ]
				}

			}
, 			{
				"patchline" : 				{
					"source" : [ "obj-12", 0 ],
					"destination" : [ "obj-13", 0 ],
					"hidden" : 0,
					"midpoints" : [ 821.5, 295.0, 821.5, 295.0 ]
				}

			}
, 			{
				"patchline" : 				{
					"source" : [ "obj-13", 0 ],
					"destination" : [ "obj-12", 0 ],
					"hidden" : 0,
					"midpoints" : [ 821.5, 319.0, 799.0, 319.0, 799.0, 268.0, 821.5, 268.0 ]
				}

			}
, 			{
				"patchline" : 				{
					"source" : [ "obj-15", 0 ],
					"destination" : [ "obj-14", 0 ],
					"hidden" : 0,
					"midpoints" : [ 818.5, 478.0, 796.0, 478.0, 796.0, 430.0, 818.5, 430.0 ]
				}

			}
, 			{
				"patchline" : 				{
					"source" : [ "obj-14", 0 ],
					"destination" : [ "obj-15", 0 ],
					"hidden" : 0,
					"midpoints" : [ 818.5, 454.0, 818.5, 454.0 ]
				}

			}
, 			{
				"patchline" : 				{
					"source" : [ "obj-18", 0 ],
					"destination" : [ "obj-20", 0 ],
					"hidden" : 0,
					"midpoints" : [ 816.5, 625.0, 816.5, 625.0 ]
				}

			}
, 			{
				"patchline" : 				{
					"source" : [ "obj-20", 0 ],
					"destination" : [ "obj-18", 0 ],
					"hidden" : 0,
					"midpoints" : [ 816.5, 649.0, 793.0, 649.0, 793.0, 601.0, 816.5, 601.0 ]
				}

			}
, 			{
				"patchline" : 				{
					"source" : [ "obj-21", 0 ],
					"destination" : [ "obj-22", 0 ],
					"hidden" : 0,
					"midpoints" : [ 389.5, 199.0, 389.5, 199.0 ]
				}

			}
, 			{
				"patchline" : 				{
					"source" : [ "obj-22", 0 ],
					"destination" : [ "obj-27", 1 ],
					"hidden" : 0,
					"midpoints" : [ 389.5, 223.0, 548.5, 223.0 ]
				}

			}
, 			{
				"patchline" : 				{
					"source" : [ "obj-28", 0 ],
					"destination" : [ "obj-24", 0 ],
					"hidden" : 0,
					"midpoints" : [ 385.5, 364.0, 385.5, 364.0 ]
				}

			}
, 			{
				"patchline" : 				{
					"source" : [ "obj-5", 2 ],
					"destination" : [ "obj-28", 1 ],
					"hidden" : 0,
					"midpoints" : [ 577.5, 337.0, 430.5, 337.0 ]
				}

			}
, 			{
				"patchline" : 				{
					"source" : [ "obj-24", 0 ],
					"destination" : [ "obj-26", 1 ],
					"hidden" : 0,
					"midpoints" : [ 385.5, 388.0, 544.5, 388.0 ]
				}

			}
, 			{
				"patchline" : 				{
					"source" : [ "obj-31", 0 ],
					"destination" : [ "obj-29", 0 ],
					"hidden" : 0,
					"midpoints" : [ 384.5, 535.0, 384.5, 535.0 ]
				}

			}
, 			{
				"patchline" : 				{
					"source" : [ "obj-29", 0 ],
					"destination" : [ "obj-30", 1 ],
					"hidden" : 0,
					"midpoints" : [ 384.5, 559.0, 543.5, 559.0 ]
				}

			}
, 			{
				"patchline" : 				{
					"source" : [ "obj-35", 0 ],
					"destination" : [ "obj-33", 0 ],
					"hidden" : 0,
					"midpoints" : [ 381.5, 712.0, 381.5, 712.0 ]
				}

			}
, 			{
				"patchline" : 				{
					"source" : [ "obj-9", 2 ],
					"destination" : [ "obj-35", 1 ],
					"hidden" : 0,
					"midpoints" : [ 570.5, 676.0, 426.5, 676.0 ]
				}

			}
, 			{
				"patchline" : 				{
					"source" : [ "obj-7", 2 ],
					"destination" : [ "obj-31", 1 ],
					"hidden" : 0,
					"midpoints" : [ 576.5, 499.0, 429.5, 499.0 ]
				}

			}
, 			{
				"patchline" : 				{
					"source" : [ "obj-33", 0 ],
					"destination" : [ "obj-34", 1 ],
					"hidden" : 0,
					"midpoints" : [ 381.5, 736.0, 540.5, 736.0 ]
				}

			}
, 			{
				"patchline" : 				{
					"source" : [ "obj-38", 0 ],
					"destination" : [ "obj-36", 0 ],
					"hidden" : 0,
					"midpoints" : [ 828.5, 199.0, 828.5, 199.0 ]
				}

			}
, 			{
				"patchline" : 				{
					"source" : [ "obj-11", 2 ],
					"destination" : [ "obj-38", 1 ],
					"hidden" : 0,
					"midpoints" : [ 1020.5, 175.0, 873.5, 175.0 ]
				}

			}
, 			{
				"patchline" : 				{
					"source" : [ "obj-36", 0 ],
					"destination" : [ "obj-37", 1 ],
					"hidden" : 0,
					"midpoints" : [ 828.5, 223.0, 987.5, 223.0 ]
				}

			}
, 			{
				"patchline" : 				{
					"source" : [ "obj-41", 0 ],
					"destination" : [ "obj-39", 0 ],
					"hidden" : 0,
					"midpoints" : [ 822.5, 358.0, 822.5, 358.0 ]
				}

			}
, 			{
				"patchline" : 				{
					"source" : [ "obj-13", 2 ],
					"destination" : [ "obj-41", 1 ],
					"hidden" : 0,
					"midpoints" : [ 1012.5, 334.0, 867.5, 334.0 ]
				}

			}
, 			{
				"patchline" : 				{
					"source" : [ "obj-39", 0 ],
					"destination" : [ "obj-40", 1 ],
					"hidden" : 0,
					"midpoints" : [ 822.5, 382.0, 981.5, 382.0 ]
				}

			}
, 			{
				"patchline" : 				{
					"source" : [ "obj-44", 0 ],
					"destination" : [ "obj-42", 0 ],
					"hidden" : 0,
					"midpoints" : [ 819.5, 520.0, 819.5, 520.0 ]
				}

			}
, 			{
				"patchline" : 				{
					"source" : [ "obj-15", 2 ],
					"destination" : [ "obj-44", 1 ],
					"hidden" : 0,
					"midpoints" : [ 1009.5, 496.0, 864.5, 496.0 ]
				}

			}
, 			{
				"patchline" : 				{
					"source" : [ "obj-42", 0 ],
					"destination" : [ "obj-43", 1 ],
					"hidden" : 0,
					"midpoints" : [ 819.5, 544.0, 978.5, 544.0 ]
				}

			}
, 			{
				"patchline" : 				{
					"source" : [ "obj-47", 0 ],
					"destination" : [ "obj-45", 0 ],
					"hidden" : 0,
					"midpoints" : [ 817.5, 682.0, 817.5, 682.0 ]
				}

			}
, 			{
				"patchline" : 				{
					"source" : [ "obj-20", 2 ],
					"destination" : [ "obj-47", 1 ],
					"hidden" : 0,
					"midpoints" : [ 1007.5, 658.0, 862.5, 658.0 ]
				}

			}
, 			{
				"patchline" : 				{
					"source" : [ "obj-45", 0 ],
					"destination" : [ "obj-46", 1 ],
					"hidden" : 0,
					"midpoints" : [ 817.5, 706.0, 976.5, 706.0 ]
				}

			}
, 			{
				"patchline" : 				{
					"source" : [ "obj-25", 0 ],
					"destination" : [ "obj-28", 0 ],
					"hidden" : 0,
					"midpoints" : [ 310.5, 295.0, 361.0, 295.0, 361.0, 337.0, 385.5, 337.0 ]
				}

			}
, 			{
				"patchline" : 				{
					"source" : [ "obj-25", 0 ],
					"destination" : [ "obj-31", 0 ],
					"hidden" : 0,
					"midpoints" : [ 310.5, 295.0, 361.0, 295.0, 361.0, 499.0, 384.5, 499.0 ]
				}

			}
, 			{
				"patchline" : 				{
					"source" : [ "obj-25", 0 ],
					"destination" : [ "obj-35", 0 ],
					"hidden" : 0,
					"midpoints" : [ 310.5, 295.0, 355.0, 295.0, 355.0, 676.0, 381.5, 676.0 ]
				}

			}
, 			{
				"patchline" : 				{
					"source" : [ "obj-25", 0 ],
					"destination" : [ "obj-38", 0 ],
					"hidden" : 0,
					"midpoints" : [ 310.5, 175.0, 828.5, 175.0 ]
				}

			}
, 			{
				"patchline" : 				{
					"source" : [ "obj-25", 0 ],
					"destination" : [ "obj-41", 0 ],
					"hidden" : 0,
					"midpoints" : [ 310.5, 175.0, 799.0, 175.0, 799.0, 334.0, 822.5, 334.0 ]
				}

			}
, 			{
				"patchline" : 				{
					"source" : [ "obj-25", 0 ],
					"destination" : [ "obj-44", 0 ],
					"hidden" : 0,
					"midpoints" : [ 310.5, 295.0, 361.0, 295.0, 361.0, 496.0, 819.5, 496.0 ]
				}

			}
, 			{
				"patchline" : 				{
					"source" : [ "obj-25", 0 ],
					"destination" : [ "obj-47", 0 ],
					"hidden" : 0,
					"midpoints" : [ 310.5, 295.0, 361.0, 295.0, 361.0, 499.0, 793.0, 499.0, 793.0, 658.0, 817.5, 658.0 ]
				}

			}
, 			{
				"patchline" : 				{
					"source" : [ "obj-23", 0 ],
					"destination" : [ "obj-25", 0 ],
					"hidden" : 0,
					"midpoints" : [ 310.5, 94.0, 310.5, 94.0 ]
				}

			}
 ]
	}

}
